<mxfile host="app.diagrams.net" modified="2023-05-04T07:59:21.900Z" agent="Mozilla/5.0 (Windows NT 10.0; Win64; x64) AppleWebKit/537.36 (KHTML, like Gecko) Chrome/112.0.0.0 Safari/537.36" version="21.2.7" etag="D9x3RD42f_yhao2t5v1i" type="github">
  <diagram name="Страница 1" id="t5Zegeufm3dF-dalC3Dh">
    <mxGraphModel>
      <root>
        <mxCell id="0" />
        <mxCell id="1" parent="0" />
      </root>
    </mxGraphModel>
  </diagram>
</mxfile>
